<svg width="27" height="24" viewBox="0 0 27 24" fill="none" xmlns="http://www.w3.org/2000/svg">
<rect width="26.5714" height="24" rx="12" fill="white" fill-opacity="0.15"/>
<path fill-rule="evenodd" clip-rule="evenodd" d="M9.51248 13.8518C9.56474 13.7994 9.62681 13.7578 9.69515 13.7295C9.76348 13.7011 9.83675 13.6865 9.91073 13.6865C9.98472 13.6865 10.058 13.7011 10.1263 13.7295C10.1947 13.7578 10.2567 13.7994 10.309 13.8518L13.2857 16.8297L16.2625 13.8518C16.3681 13.7462 16.5114 13.6868 16.6607 13.6868C16.8101 13.6868 16.9534 13.7462 17.059 13.8518C17.1646 13.9574 17.2239 14.1007 17.2239 14.25C17.2239 14.3994 17.1646 14.5427 17.059 14.6483L13.684 18.0233C13.6317 18.0757 13.5697 18.1172 13.5013 18.1456C13.433 18.1739 13.3597 18.1885 13.2857 18.1885C13.2117 18.1885 13.1385 18.1739 13.0701 18.1456C13.0018 18.1172 12.9397 18.0757 12.8875 18.0233L9.51248 14.6483C9.4601 14.596 9.41854 14.534 9.39018 14.4656C9.36183 14.3973 9.34723 14.324 9.34723 14.25C9.34723 14.176 9.36183 14.1028 9.39018 14.0344C9.41854 13.9661 9.4601 13.904 9.51248 13.8518Z" fill="white"/>
<path fill-rule="evenodd" clip-rule="evenodd" d="M13.2857 5.8125C13.4349 5.8125 13.578 5.87176 13.6835 5.97725C13.7889 6.08274 13.8482 6.22582 13.8482 6.375V16.5C13.8482 16.6492 13.7889 16.7923 13.6835 16.8977C13.578 17.0032 13.4349 17.0625 13.2857 17.0625C13.1365 17.0625 12.9934 17.0032 12.888 16.8977C12.7825 16.7923 12.7232 16.6492 12.7232 16.5V6.375C12.7232 6.22582 12.7825 6.08274 12.888 5.97725C12.9934 5.87176 13.1365 5.8125 13.2857 5.8125Z" fill="white"/>
</svg>
