<svg width="31" height="30" viewBox="0 0 31 30" fill="none" xmlns="http://www.w3.org/2000/svg">
<path d="M20.2878 29.833V22.323C20.2878 21.1279 19.8137 19.9818 18.9698 19.1367C18.1259 18.2917 16.9813 17.817 15.7878 17.817C14.5944 17.817 13.4498 18.2917 12.6059 19.1367C11.7619 19.9818 11.2878 21.1279 11.2878 22.323V29.833H3.78784C2.99219 29.833 2.22913 29.5165 1.66652 28.9532C1.10391 28.3898 0.787842 27.6257 0.787842 26.829V10.5052C0.787837 9.98644 0.921988 9.47652 1.17723 9.0251C1.43247 8.57368 1.80011 8.19614 2.24434 7.92924L14.2443 0.719605C14.7106 0.439478 15.2441 0.291504 15.7878 0.291504C16.3316 0.291504 16.8651 0.439478 17.3313 0.719605L29.3313 7.92924C29.7756 8.19614 30.1432 8.57368 30.3985 9.0251C30.6537 9.47652 30.7878 9.98644 30.7878 10.5052V26.829C30.7878 27.6257 30.4718 28.3898 29.9092 28.9532C29.3466 29.5165 28.5835 29.833 27.7878 29.833H20.2878Z" fill="url(#paint0_linear_619_1526)"/>
<defs>
<linearGradient id="paint0_linear_619_1526" x1="15.7878" y1="0.291504" x2="15.7878" y2="29.833" gradientUnits="userSpaceOnUse">
<stop stop-color="#549994"/>
<stop offset="1" stop-color="#408782"/>
</linearGradient>
</defs>
</svg>
