<svg width="27" height="26" viewBox="0 0 27 26" fill="none" xmlns="http://www.w3.org/2000/svg">
<path d="M12.6803 0.390198C15.8023 0.390198 18.3485 2.89277 18.3485 5.97383V11.9976H10.6714C10.1212 11.9976 9.68621 12.4252 9.68621 12.966C9.68621 13.4941 10.1212 13.9343 10.6714 13.9343H18.3485V19.9455C18.3485 23.0266 15.8023 25.5417 12.6547 25.5417H6.42346C3.28866 25.5417 0.742432 23.0391 0.742432 19.9581V5.98641C0.742432 2.89277 3.30145 0.390198 6.43625 0.390198H12.6803ZM21.543 8.62757C21.9203 8.23772 22.5365 8.23772 22.9137 8.615L26.5859 12.2745C26.7745 12.4632 26.8751 12.7021 26.8751 12.9662C26.8751 13.2177 26.7745 13.4692 26.5859 13.6453L22.9137 17.3048C22.7251 17.4935 22.4736 17.5941 22.2347 17.5941C21.9831 17.5941 21.7316 17.4935 21.543 17.3048C21.1657 16.9276 21.1657 16.3114 21.543 15.9341L23.5551 13.9345H18.3487V11.9979H23.5551L21.543 9.99833C21.1657 9.62106 21.1657 9.00484 21.543 8.62757Z" fill="#E5613E"/>
</svg>
