<svg width="31" height="31" viewBox="0 0 31 31" fill="none" xmlns="http://www.w3.org/2000/svg">
<path fill-rule="evenodd" clip-rule="evenodd" d="M7.02655 21.9752H2.77655V28.3502H7.02655V21.9752ZM17.6516 13.4752H13.4016V28.3502H17.6516V13.4752ZM28.2766 2.85022H24.0266V28.3502H28.2766V2.85022ZM24.0266 0.72522C23.463 0.72522 22.9225 0.949103 22.5239 1.34762C22.1254 1.74613 21.9016 2.28663 21.9016 2.85022V28.3502C21.9016 28.9138 22.1254 29.4543 22.5239 29.8528C22.9225 30.2513 23.463 30.4752 24.0266 30.4752H28.2766C28.8401 30.4752 29.3806 30.2513 29.7792 29.8528C30.1777 29.4543 30.4016 28.9138 30.4016 28.3502V2.85022C30.4016 2.28663 30.1777 1.74613 29.7792 1.34762C29.3806 0.949103 28.8401 0.72522 28.2766 0.72522H24.0266ZM11.2766 13.4752C11.2766 12.9116 11.5004 12.3711 11.8989 11.9726C12.2975 11.5741 12.838 11.3502 13.4016 11.3502H17.6516C18.2151 11.3502 18.7556 11.5741 19.1542 11.9726C19.5527 12.3711 19.7766 12.9116 19.7766 13.4752V28.3502C19.7766 28.9138 19.5527 29.4543 19.1542 29.8528C18.7556 30.2513 18.2151 30.4752 17.6516 30.4752H13.4016C12.838 30.4752 12.2975 30.2513 11.8989 29.8528C11.5004 29.4543 11.2766 28.9138 11.2766 28.3502V13.4752ZM0.65155 21.9752C0.65155 21.4116 0.875433 20.8711 1.27395 20.4726C1.67246 20.0741 2.21297 19.8502 2.77655 19.8502H7.02655C7.59014 19.8502 8.13064 20.0741 8.52915 20.4726C8.92767 20.8711 9.15155 21.4116 9.15155 21.9752V28.3502C9.15155 28.9138 8.92767 29.4543 8.52915 29.8528C8.13064 30.2513 7.59014 30.4752 7.02655 30.4752H2.77655C2.21297 30.4752 1.67246 30.2513 1.27395 29.8528C0.875433 29.4543 0.65155 28.9138 0.65155 28.3502V21.9752Z" fill="#AAAAAA"/>
</svg>
