<svg width="31" height="31" viewBox="0 0 31 31" fill="none" xmlns="http://www.w3.org/2000/svg">
<path d="M2.20819 7.42969V25.4297C2.20819 26.0264 2.44524 26.5987 2.8672 27.0207C3.28916 27.4426 3.86145 27.6797 4.45819 27.6797H26.9582C27.2566 27.6797 27.5427 27.5612 27.7537 27.3502C27.9647 27.1392 28.0832 26.8531 28.0832 26.5547V10.8047C28.0832 10.5063 27.9647 10.2202 27.7537 10.0092C27.5427 9.79821 27.2566 9.67969 26.9582 9.67969H4.45819C3.86145 9.67969 3.28916 9.44263 2.8672 9.02068C2.44524 8.59872 2.20819 8.02642 2.20819 7.42969ZM2.20819 7.42969C2.20819 6.83295 2.44524 6.26065 2.8672 5.8387C3.28916 5.41674 3.86145 5.17969 4.45819 5.17969H23.5832" stroke="#AAAAAA" stroke-width="1.6875" stroke-linecap="round" stroke-linejoin="round"/>
</svg>
